<svg xmlns="http://www.w3.org/2000/svg" viewBox="0 0 240 80" role="img" aria-label="CondorApp logo">
  <defs>
    <linearGradient id="g" x1="0" x2="1" y1="0" y2="1">
      <stop offset="0" stop-color="#45b9ad"/>
      <stop offset="1" stop-color="#f2f2f2"/>
    </linearGradient>
  </defs>
  <rect width="240" height="80" rx="20" fill="#191919"/>
  <path d="M44 19c13 3 24 11 32 22-13-6-27-7-42-2 8-9 9-14 10-20Z" fill="url(#g)"/>
  <path d="M80 21c-9 18-22 32-45 42 8-13 14-26 18-41 7 7 17 8 27-1Z" fill="#45b9ad" opacity=".85"/>
  <path d="M31 58c25-6 46-19 62-39-3 18-18 38-42 49-9-1-16-4-20-10Z" fill="#f2f2f2" opacity=".9"/>
  <circle cx="93" cy="19" r="4" fill="#45b9ad"/>
  <text x="112" y="36" font-family="Inter, Arial, sans-serif" font-size="24" font-weight="800" fill="#f2f2f2">Condor</text>
  <text x="112" y="58" font-family="Inter, Arial, sans-serif" font-size="19" font-weight="500" fill="#45b9ad">App</text>
</svg>
